<?xml version="1.0" encoding="UTF-8"?>
<svg width="24px" height="24px" viewBox="0 0 24 24" version="1.1" xmlns="http://www.w3.org/2000/svg" xmlns:xlink="http://www.w3.org/1999/xlink">
    <!-- Generator: sketchtool 46.2 (44496) - http://www.bohemiancoding.com/sketch -->
    <title>2A599CC1-F75B-4959-8779-5027ECF71E8B</title>
    <desc>Created with sketchtool.</desc>
    <defs></defs>
    <g id="Symbols" stroke="none" stroke-width="1" fill="none" fill-rule="evenodd">
        <g id="Material/Icons-blue/alert" fill-rule="nonzero" fill="#7B9BE0">
            <path d="M14,20 C14,21.1045695 13.1045695,22 12,22 C10.8954305,22 10,21.1045695 10,20 L14,20 L14,20 Z M12,2 C12.5522847,2 13,2.44771525 13,3 L13,4.08 C15.84,4.56 18,7.03 18,10 L18,16 L21,19 L3,19 L6,16 L6,10 C6,7.03 8.16,4.56 11,4.08 L11,3 C11,2.44771525 11.4477153,2 12,2 Z" id="Shape"></path>
        </g>
    </g>
</svg>