<svg xmlns="http://www.w3.org/2000/svg" style="display:none"><symbol id="blog" viewBox="0 0 24 24">
    <path d="M20.182 4.889c-1.01-.311-2.118-.445-3.182-.445-1.773 0-3.682.356-5 1.334-1.318-.978-3.227-1.334-5-1.334-1.773 0-3.682.356-5 1.334V18.8c0 .222.227.444.455.444.09 0 .136-.044.227-.044 1.227-.578 3-.978 4.318-.978 1.773 0 3.682.356 5 1.334 1.227-.756 3.455-1.334 5-1.334 1.5 0 3.045.267 4.318.934.091.044.137.044.227.044.228 0 .455-.222.455-.444V5.778c-.545-.4-1.136-.667-1.818-.89zm0 12c-1-.311-2.091-.445-3.182-.445-1.545 0-3.773.578-5 1.334V7.556c1.227-.756 3.455-1.334 5-1.334 1.09 0 2.182.134 3.182.445v10.222z"/>
</symbol></svg>